<mxfile host="app.diagrams.net" modified="2025-09-29T09:32:00.000Z" agent="5.0" etag="template" version="24.7.17">
  <diagram name="Production Deployment Flow" id="prod-flow">
    <mxGraphModel dx="1422" dy="794" grid="1" gridSize="10" guides="1" tooltips="1" connect="1" arrows="1" fold="1" page="1" pageScale="1" pageWidth="1169" pageHeight="827" math="0" shadow="0">
      <root>
        <mxCell id="0" />
        <mxCell id="1" parent="0" />
        
        <!-- Title -->
        <mxCell id="title" value="Production Environment - Deployment Flow" style="text;html=1;strokeColor=none;fillColor=none;align=center;verticalAlign=middle;whiteSpace=wrap;rounded=0;fontSize=20;fontStyle=1;" vertex="1" parent="1">
          <mxGeometry x="350" y="20" width="469" height="30" as="geometry" />
        </mxCell>
        
        <!-- Release Tag -->
        <mxCell id="release-tag" value="Release Tag&#xa;Created" style="rounded=1;whiteSpace=wrap;html=1;fillColor=#D5E8D4;strokeColor=#82B366;" vertex="1" parent="1">
          <mxGeometry x="80" y="110" width="100" height="40" as="geometry" />
        </mxCell>
        
        <!-- Production Workflow -->
        <mxCell id="prod-workflow" value="Production&#xa;Workflow Triggered" style="rounded=1;whiteSpace=wrap;html=1;fillColor=#E1D5E7;strokeColor=#9673A6;" vertex="1" parent="1">
          <mxGeometry x="220" y="110" width="120" height="40" as="geometry" />
        </mxCell>
        
        <!-- Security Validation -->
        <mxCell id="security-validation" value="Enhanced Security&#xa;Validation" style="rounded=1;whiteSpace=wrap;html=1;fillColor=#F8CECC;strokeColor=#B85450;" vertex="1" parent="1">
          <mxGeometry x="380" y="110" width="120" height="40" as="geometry" />
        </mxCell>
        
        <!-- Compliance Check -->
        <mxCell id="compliance" value="Compliance&#xa;Checks" style="rounded=1;whiteSpace=wrap;html=1;fillColor=#F8CECC;strokeColor=#B85450;" vertex="1" parent="1">
          <mxGeometry x="540" y="110" width="100" height="40" as="geometry" />
        </mxCell>
        
        <!-- Terraform Plan -->
        <mxCell id="tf-plan" value="Terraform Plan&#xa;(Production)" style="rounded=1;whiteSpace=wrap;html=1;fillColor=#FFF2CC;strokeColor=#D6B656;" vertex="1" parent="1">
          <mxGeometry x="680" y="110" width="120" height="40" as="geometry" />
        </mxCell>
        
        <!-- Senior Approval -->
        <mxCell id="senior-approval" value="Senior Team&#xa;Approval" style="rounded=1;whiteSpace=wrap;html=1;fillColor=#FFE6CC;strokeColor=#D79B00;" vertex="1" parent="1">
          <mxGeometry x="840" y="110" width="100" height="40" as="geometry" />
        </mxCell>
        
        <!-- Backup -->
        <mxCell id="backup" value="Pre-deployment&#xa;Backup" style="rounded=1;whiteSpace=wrap;html=1;fillColor=#CCE5FF;strokeColor=#0066CC;" vertex="1" parent="1">
          <mxGeometry x="840" y="200" width="100" height="40" as="geometry" />
        </mxCell>
        
        <!-- Blue-Green Deploy -->
        <mxCell id="blue-green" value="Blue-Green&#xa;Deployment" style="rounded=1;whiteSpace=wrap;html=1;fillColor=#CCE5FF;strokeColor=#0066CC;" vertex="1" parent="1">
          <mxGeometry x="680" y="200" width="120" height="40" as="geometry" />
        </mxCell>
        
        <!-- Health Checks -->
        <mxCell id="health-checks" value="Health Checks&#xa;& Monitoring" style="rounded=1;whiteSpace=wrap;html=1;fillColor=#CCE5FF;strokeColor=#0066CC;" vertex="1" parent="1">
          <mxGeometry x="540" y="200" width="100" height="40" as="geometry" />
        </mxCell>
        
        <!-- Smoke Tests -->
        <mxCell id="smoke-tests" value="Smoke Tests&#xa;& Validation" style="rounded=1;whiteSpace=wrap;html=1;fillColor=#CCE5FF;strokeColor=#0066CC;" vertex="1" parent="1">
          <mxGeometry x="380" y="200" width="120" height="40" as="geometry" />
        </mxCell>
        
        <!-- Traffic Switch -->
        <mxCell id="traffic-switch" value="Traffic Switch&#xa;(if successful)" style="rounded=1;whiteSpace=wrap;html=1;fillColor=#D5E8D4;strokeColor=#82B366;" vertex="1" parent="1">
          <mxGeometry x="220" y="200" width="120" height="40" as="geometry" />
        </mxCell>
        
        <!-- Production Live -->
        <mxCell id="prod-live" value="Production&#xa;Live" style="rounded=1;whiteSpace=wrap;html=1;fillColor=#D5E8D4;strokeColor=#82B366;" vertex="1" parent="1">
          <mxGeometry x="80" y="200" width="100" height="40" as="geometry" />
        </mxCell>
        
        <!-- Rollback Option -->
        <mxCell id="rollback" value="Rollback Plan&#xa;(if needed)" style="rounded=1;whiteSpace=wrap;html=1;fillColor=#F8CECC;strokeColor=#B85450;dashed=1;" vertex="1" parent="1">
          <mxGeometry x="450" y="290" width="100" height="40" as="geometry" />
        </mxCell>
        
        <!-- Arrows -->
        <mxCell id="arrow1" style="edgeStyle=orthogonalEdgeStyle;rounded=0;orthogonalLoop=1;jettySize=auto;html=1;" edge="1" parent="1" source="release-tag" target="prod-workflow">
          <mxGeometry relative="1" as="geometry" />
        </mxCell>
        
        <mxCell id="arrow2" style="edgeStyle=orthogonalEdgeStyle;rounded=0;orthogonalLoop=1;jettySize=auto;html=1;" edge="1" parent="1" source="prod-workflow" target="security-validation">
          <mxGeometry relative="1" as="geometry" />
        </mxCell>
        
        <mxCell id="arrow3" style="edgeStyle=orthogonalEdgeStyle;rounded=0;orthogonalLoop=1;jettySize=auto;html=1;" edge="1" parent="1" source="security-validation" target="compliance">
          <mxGeometry relative="1" as="geometry" />
        </mxCell>
        
        <mxCell id="arrow4" style="edgeStyle=orthogonalEdgeStyle;rounded=0;orthogonalLoop=1;jettySize=auto;html=1;" edge="1" parent="1" source="compliance" target="tf-plan">
          <mxGeometry relative="1" as="geometry" />
        </mxCell>
        
        <mxCell id="arrow5" style="edgeStyle=orthogonalEdgeStyle;rounded=0;orthogonalLoop=1;jettySize=auto;html=1;" edge="1" parent="1" source="tf-plan" target="senior-approval">
          <mxGeometry relative="1" as="geometry" />
        </mxCell>
        
        <mxCell id="arrow6" style="edgeStyle=orthogonalEdgeStyle;rounded=0;orthogonalLoop=1;jettySize=auto;html=1;" edge="1" parent="1" source="senior-approval" target="backup">
          <mxGeometry relative="1" as="geometry" />
        </mxCell>
        
        <mxCell id="arrow7" style="edgeStyle=orthogonalEdgeStyle;rounded=0;orthogonalLoop=1;jettySize=auto;html=1;" edge="1" parent="1" source="backup" target="blue-green">
          <mxGeometry relative="1" as="geometry" />
        </mxCell>
        
        <mxCell id="arrow8" style="edgeStyle=orthogonalEdgeStyle;rounded=0;orthogonalLoop=1;jettySize=auto;html=1;" edge="1" parent="1" source="blue-green" target="health-checks">
          <mxGeometry relative="1" as="geometry" />
        </mxCell>
        
        <mxCell id="arrow9" style="edgeStyle=orthogonalEdgeStyle;rounded=0;orthogonalLoop=1;jettySize=auto;html=1;" edge="1" parent="1" source="health-checks" target="smoke-tests">
          <mxGeometry relative="1" as="geometry" />
        </mxCell>
        
        <mxCell id="arrow10" style="edgeStyle=orthogonalEdgeStyle;rounded=0;orthogonalLoop=1;jettySize=auto;html=1;" edge="1" parent="1" source="smoke-tests" target="traffic-switch">
          <mxGeometry relative="1" as="geometry" />
        </mxCell>
        
        <mxCell id="arrow11" style="edgeStyle=orthogonalEdgeStyle;rounded=0;orthogonalLoop=1;jettySize=auto;html=1;" edge="1" parent="1" source="traffic-switch" target="prod-live">
          <mxGeometry relative="1" as="geometry" />
        </mxCell>
        
        <!-- Rollback arrow -->
        <mxCell id="rollback-arrow" style="edgeStyle=orthogonalEdgeStyle;rounded=0;orthogonalLoop=1;jettySize=auto;html=1;dashed=1;strokeColor=#B85450;" edge="1" parent="1" source="rollback" target="smoke-tests">
          <mxGeometry relative="1" as="geometry">
            <Array as="points">
              <mxPoint x="500" y="270" />
              <mxPoint x="440" y="270" />
            </Array>
          </mxGeometry>
        </mxCell>
        
      </root>
    </mxGraphModel>
  </diagram>
</mxfile>
